<svg width="9" height="10" viewBox="0 0 9 10" fill="none" xmlns="http://www.w3.org/2000/svg">
<path d="M6.5 9H2.5C2.10218 9 1.72064 8.84196 1.43934 8.56066C1.15804 8.27936 1 7.89782 1 7.5V2.5C1 2.36739 0.947321 2.24021 0.853553 2.14645C0.759785 2.05268 0.632608 2 0.5 2C0.367392 2 0.240215 2.05268 0.146447 2.14645C0.0526784 2.24021 0 2.36739 0 2.5V7.5C0 8.16304 0.263392 8.79893 0.732233 9.26777C1.20107 9.73661 1.83696 10 2.5 10H6.5C6.63261 10 6.75979 9.94732 6.85355 9.85355C6.94732 9.75979 7 9.63261 7 9.5C7 9.36739 6.94732 9.24021 6.85355 9.14645C6.75979 9.05268 6.63261 9 6.5 9ZM9 3.47C8.99479 3.42407 8.98474 3.37882 8.97 3.335V3.29C8.94596 3.23859 8.91389 3.19133 8.875 3.15L5.875 0.15C5.83367 0.111108 5.78641 0.0790405 5.735 0.0549999H5.69L5.53 0H3.5C3.10218 0 2.72064 0.158035 2.43934 0.43934C2.15804 0.720644 2 1.10218 2 1.5V6.5C2 6.89782 2.15804 7.27936 2.43934 7.56066C2.72064 7.84196 3.10218 8 3.5 8H7.5C7.89782 8 8.27936 7.84196 8.56066 7.56066C8.84196 7.27936 9 6.89782 9 6.5V3.5C9 3.5 9 3.5 9 3.47ZM6 1.705L7.295 3H6.5C6.36739 3 6.24021 2.94732 6.14645 2.85355C6.05268 2.75979 6 2.63261 6 2.5V1.705ZM8 6.5C8 6.63261 7.94732 6.75979 7.85355 6.85355C7.75979 6.94732 7.63261 7 7.5 7H3.5C3.36739 7 3.24021 6.94732 3.14645 6.85355C3.05268 6.75979 3 6.63261 3 6.5V1.5C3 1.36739 3.05268 1.24021 3.14645 1.14645C3.24021 1.05268 3.36739 1 3.5 1H5V2.5C5 2.89782 5.15804 3.27936 5.43934 3.56066C5.72064 3.84196 6.10218 4 6.5 4H8V6.5Z" fill="black"/>
</svg>
