<svg width="17" height="21" viewBox="0 0 17 21" fill="none" xmlns="http://www.w3.org/2000/svg">
<path d="M14.5195 2.49115C12.9244 0.896093 10.7611 -1.68066e-08 8.50531 0C6.24956 1.68066e-08 4.0862 0.896093 2.49115 2.49115C0.896093 4.0862 1.68066e-08 6.24956 0 8.50531C-1.68066e-08 10.7611 0.896093 12.9244 2.49115 14.5195L7.77359 19.8119C7.86677 19.9059 7.97763 19.9805 8.09978 20.0314C8.22193 20.0822 8.35294 20.1084 8.48527 20.1084C8.61759 20.1084 8.7486 20.0822 8.87075 20.0314C8.9929 19.9805 9.10376 19.9059 9.19694 19.8119L14.5195 14.4694C16.1079 12.8809 17.0002 10.7266 17.0002 8.48025C17.0002 6.23391 16.1079 4.07957 14.5195 2.49115ZM13.0861 13.036L8.50531 17.6368L3.92452 13.036C3.01954 12.1302 2.40342 10.9764 2.15405 9.72047C1.90468 8.46455 2.03326 7.1629 2.52353 5.98005C3.0138 4.79719 3.84375 3.78625 4.90847 3.075C5.97319 2.36375 7.22488 1.98414 8.50531 1.98414C9.78574 1.98414 11.0374 2.36375 12.1022 3.075C13.1669 3.78625 13.9968 4.79719 14.4871 5.98005C14.9774 7.1629 15.1059 8.46455 14.8566 9.72047C14.6072 10.9764 13.9911 12.1302 13.0861 13.036ZM5.49823 5.42807C4.68904 6.23975 4.23465 7.33913 4.23465 8.48527C4.23465 9.6314 4.68904 10.7308 5.49823 11.5425C6.09941 12.1447 6.86504 12.5559 7.69906 12.7247C8.53309 12.8934 9.39837 12.812 10.1863 12.4909C10.9743 12.1697 11.6499 11.6229 12.1283 10.9192C12.6068 10.2156 12.8667 9.38626 12.8756 8.53538C12.8801 7.96725 12.7707 7.40398 12.5538 6.87887C12.3368 6.35376 12.0168 5.87748 11.6126 5.47818C11.2154 5.07181 10.7417 4.748 10.2188 4.52541C9.69588 4.30281 9.13414 4.18582 8.56586 4.18116C7.99758 4.1765 7.43399 4.28427 6.90752 4.49826C6.38105 4.71226 5.9021 5.02825 5.49823 5.42807ZM10.1993 10.1191C9.81945 10.5048 9.31744 10.7465 8.77909 10.803C8.24073 10.8595 7.69948 10.7272 7.24786 10.4288C6.79624 10.1304 6.4623 9.68433 6.30313 9.16696C6.14397 8.64958 6.16946 8.09298 6.37525 7.59232C6.58105 7.09166 6.95436 6.67803 7.43137 6.42214C7.90838 6.16626 8.45946 6.08402 8.99039 6.18948C9.52133 6.29493 9.99914 6.58154 10.3421 7.0003C10.6852 7.41906 10.8721 7.94396 10.8709 8.48527C10.8563 9.10399 10.5967 9.69164 10.1492 10.1191H10.1993Z" fill="#0061FF"/>
</svg>
