<svg width="17" height="17" viewBox="0 0 17 17" fill="none" xmlns="http://www.w3.org/2000/svg">
<path d="M8.50002 0C6.81888 0 5.17549 0.498518 3.77767 1.43251C2.37984 2.36651 1.29038 3.69403 0.647029 5.2472C0.00368292 6.80038 -0.164646 8.50945 0.163329 10.1583C0.491305 11.8071 1.30085 13.3217 2.4896 14.5104C3.67835 15.6992 5.19291 16.5087 6.84175 16.8367C8.4906 17.1647 10.1997 16.9964 11.7528 16.353C13.306 15.7097 14.6335 14.6202 15.5675 13.2224C16.5015 11.8246 17 10.1812 17 8.50002C17 7.38378 16.7802 6.27847 16.353 5.2472C15.9259 4.21593 15.2997 3.2789 14.5104 2.4896C13.7211 1.7003 12.7841 1.07419 11.7528 0.647026C10.7216 0.21986 9.61626 0 8.50002 0ZM8.50002 15.3C7.15511 15.3 5.84039 14.9012 4.72214 14.154C3.60388 13.4068 2.73231 12.3448 2.21763 11.1023C1.70295 9.85973 1.56829 8.49248 1.83067 7.1734C2.09305 5.85433 2.74069 4.64268 3.69169 3.69168C4.64269 2.74068 5.85433 2.09304 7.17341 1.83066C8.49248 1.56828 9.85974 1.70295 11.1023 2.21762C12.3448 2.7323 13.4068 3.60388 14.154 4.72213C14.9012 5.84039 15.3 7.1551 15.3 8.50002C15.3 10.3035 14.5836 12.0331 13.3084 13.3084C12.0331 14.5836 10.3035 15.3 8.50002 15.3ZM11.9 7.65002H9.35003V5.10001C9.35003 4.87458 9.26047 4.65838 9.10107 4.49897C8.94166 4.33956 8.72546 4.25001 8.50002 4.25001C8.27459 4.25001 8.05839 4.33956 7.89898 4.49897C7.73958 4.65838 7.65002 4.87458 7.65002 5.10001V7.65002H5.10002C4.87458 7.65002 4.65838 7.73957 4.49897 7.89898C4.33957 8.05839 4.25001 8.27459 4.25001 8.50002C4.25001 8.72546 4.33957 8.94166 4.49897 9.10106C4.65838 9.26047 4.87458 9.35002 5.10002 9.35002H7.65002V11.9C7.65002 12.1255 7.73958 12.3417 7.89898 12.5011C8.05839 12.6605 8.27459 12.75 8.50002 12.75C8.72546 12.75 8.94166 12.6605 9.10107 12.5011C9.26047 12.3417 9.35003 12.1255 9.35003 11.9V9.35002H11.9C12.1255 9.35002 12.3417 9.26047 12.5011 9.10106C12.6605 8.94166 12.75 8.72546 12.75 8.50002C12.75 8.27459 12.6605 8.05839 12.5011 7.89898C12.3417 7.73957 12.1255 7.65002 11.9 7.65002Z" fill="#75839D"/>
</svg>
