<svg width="21" height="21" viewBox="0 0 21 21" fill="none" xmlns="http://www.w3.org/2000/svg">
<path d="M16.7797 12.6136C16.1603 12.6177 15.5496 12.7589 14.9913 13.0272C14.433 13.2954 13.9411 13.684 13.5509 14.165L8.20455 11.7015C8.45592 10.9318 8.45592 10.1021 8.20455 9.33236L13.5509 6.86885C14.1816 7.62988 15.0608 8.14367 16.0334 8.31953C17.0061 8.4954 18.0096 8.32204 18.8668 7.83004C19.7241 7.33805 20.3799 6.55905 20.7187 5.63053C21.0575 4.70201 21.0574 3.68366 20.7185 2.7552C20.3795 1.82675 19.7235 1.04787 18.8661 0.55603C18.0088 0.0641923 17.0053 -0.108988 16.0327 0.0670545C15.0601 0.243097 14.181 0.757044 13.5504 1.51819C12.9199 2.27934 12.5785 3.23876 12.5865 4.22712C12.5896 4.47686 12.6142 4.72587 12.6598 4.97142L7.1248 7.5188C6.53469 6.94179 5.78742 6.55175 4.97662 6.39756C4.16582 6.24337 3.32755 6.33187 2.56682 6.65199C1.8061 6.9721 1.15676 7.50959 0.70016 8.19711C0.243558 8.88464 0 9.69162 0 10.5169C0 11.3423 0.243558 12.1493 0.70016 12.8368C1.15676 13.5243 1.8061 14.0618 2.56682 14.3819C3.32755 14.702 4.16582 14.7905 4.97662 14.6363C5.78742 14.4821 6.53469 14.0921 7.1248 13.5151L12.6598 16.0625C12.6142 16.308 12.5896 16.557 12.5865 16.8068C12.5865 17.6361 12.8324 18.4468 13.2932 19.1364C13.7539 19.826 14.4088 20.3634 15.175 20.6808C15.9412 20.9982 16.7843 21.0812 17.5977 20.9194C18.4111 20.7576 19.1583 20.3583 19.7447 19.7718C20.3312 19.1854 20.7305 18.4382 20.8923 17.6248C21.0541 16.8114 20.9711 15.9683 20.6537 15.2021C20.3363 14.4359 19.7989 13.781 19.1093 13.3202C18.4197 12.8595 17.609 12.6136 16.7797 12.6136ZM16.7797 2.13051C17.1944 2.13051 17.5997 2.25348 17.9445 2.48385C18.2893 2.71423 18.558 3.04168 18.7167 3.42478C18.8754 3.80789 18.9169 4.22945 18.836 4.63615C18.7551 5.04285 18.5554 5.41643 18.2622 5.70965C17.969 6.00286 17.5954 6.20255 17.1887 6.28344C16.782 6.36434 16.3604 6.32282 15.9773 6.16414C15.5942 6.00545 15.2668 5.73672 15.0364 5.39193C14.806 5.04715 14.6831 4.64179 14.6831 4.22712C14.6831 3.67107 14.904 3.13779 15.2972 2.74459C15.6903 2.3514 16.2236 2.13051 16.7797 2.13051ZM4.20003 12.6136C3.78536 12.6136 3.38 12.4906 3.03522 12.2602C2.69043 12.0298 2.4217 11.7024 2.26302 11.3193C2.10433 10.9362 2.06281 10.5146 2.14371 10.1079C2.2246 9.70122 2.42429 9.32764 2.7175 9.03442C3.01072 8.74121 3.3843 8.54152 3.791 8.46062C4.1977 8.37973 4.61926 8.42125 5.00237 8.57993C5.38547 8.73862 5.71292 9.00735 5.9433 9.35213C6.17367 9.69692 6.29664 10.1023 6.29664 10.5169C6.29664 11.073 6.07575 11.6063 5.68256 11.9995C5.28937 12.3927 4.75608 12.6136 4.20003 12.6136ZM16.7797 18.9034C16.365 18.9034 15.9597 18.7804 15.6149 18.55C15.2701 18.3197 15.0014 17.9922 14.8427 17.6091C14.684 17.226 14.6425 16.8044 14.7234 16.3977C14.8043 15.991 15.0039 15.6175 15.2972 15.3242C15.5904 15.031 15.964 14.8313 16.3707 14.7505C16.7774 14.6696 17.1989 14.7111 17.582 14.8698C17.9651 15.0284 18.2926 15.2972 18.5229 15.642C18.7533 15.9867 18.8763 16.3921 18.8763 16.8068C18.8763 17.3628 18.6554 17.8961 18.2622 18.2893C17.869 18.6825 17.3357 18.9034 16.7797 18.9034Z" fill="#75839D"/>
</svg>
