<svg width="14" height="19" viewBox="0 0 14 19" fill="none" xmlns="http://www.w3.org/2000/svg">
<path d="M6.90908 12.0909C7.82528 12.0909 8.70395 11.7269 9.3518 11.0791C9.99965 10.4312 10.3636 9.55254 10.3636 8.63634V3.45454C10.3636 2.53834 9.99965 1.65966 9.3518 1.01181C8.70395 0.363959 7.82528 0 6.90908 0C5.99287 0 5.1142 0.363959 4.46635 1.01181C3.8185 1.65966 3.45454 2.53834 3.45454 3.45454V8.63634C3.45454 9.55254 3.8185 10.4312 4.46635 11.0791C5.1142 11.7269 5.99287 12.0909 6.90908 12.0909ZM5.18181 3.45454C5.18181 2.99644 5.36379 2.5571 5.68771 2.23317C6.01164 1.90925 6.45098 1.72727 6.90908 1.72727C7.36718 1.72727 7.80651 1.90925 8.13044 2.23317C8.45436 2.5571 8.63634 2.99644 8.63634 3.45454V8.63634C8.63634 9.09444 8.45436 9.53378 8.13044 9.85771C7.80651 10.1816 7.36718 10.3636 6.90908 10.3636C6.45098 10.3636 6.01164 10.1816 5.68771 9.85771C5.36379 9.53378 5.18181 9.09444 5.18181 8.63634V3.45454ZM13.8182 8.63634C13.8182 8.40729 13.7272 8.18762 13.5652 8.02566C13.4032 7.8637 13.1836 7.77271 12.9545 7.77271C12.7255 7.77271 12.5058 7.8637 12.3438 8.02566C12.1819 8.18762 12.0909 8.40729 12.0909 8.63634C12.0909 10.0106 11.5449 11.3287 10.5732 12.3004C9.60139 13.2722 8.28338 13.8181 6.90908 13.8181C5.53478 13.8181 4.21676 13.2722 3.24499 12.3004C2.27321 11.3287 1.72727 10.0106 1.72727 8.63634C1.72727 8.40729 1.63628 8.18762 1.47432 8.02566C1.31235 7.8637 1.09268 7.77271 0.863634 7.77271C0.634584 7.77271 0.414916 7.8637 0.252953 8.02566C0.09099 8.18762 0 8.40729 0 8.63634C0.001525 10.3181 0.616395 11.9415 1.72934 13.2024C2.84228 14.4632 4.37688 15.2747 6.04544 15.485V17.2727H4.31817C4.08912 17.2727 3.86945 17.3637 3.70749 17.5256C3.54553 17.6876 3.45454 17.9073 3.45454 18.1363C3.45454 18.3654 3.54553 18.585 3.70749 18.747C3.86945 18.909 4.08912 19 4.31817 19H9.49998C9.72903 19 9.9487 18.909 10.1107 18.747C10.2726 18.585 10.3636 18.3654 10.3636 18.1363C10.3636 17.9073 10.2726 17.6876 10.1107 17.5256C9.9487 17.3637 9.72903 17.2727 9.49998 17.2727H7.77271V15.485C9.44127 15.2747 10.9759 14.4632 12.0888 13.2024C13.2018 11.9415 13.8166 10.3181 13.8182 8.63634Z" fill="#BAC1CE"/>
</svg>
