<svg width="9" height="9" viewBox="0 0 9 9" fill="none" xmlns="http://www.w3.org/2000/svg">
<path d="M4.49991 0C3.60992 0 2.7399 0.263915 1.9999 0.758372C1.25989 1.25283 0.683125 1.95562 0.342537 2.77787C0.00194974 3.60012 -0.0871635 4.5049 0.0864666 5.3778C0.260097 6.2507 0.688672 7.05251 1.318 7.68183C1.94732 8.31115 2.74913 8.73973 3.62203 8.91336C4.49492 9.08699 5.3997 8.99788 6.22196 8.65729C7.04421 8.3167 7.747 7.73994 8.24145 6.99993C8.73591 6.25992 8.99983 5.38991 8.99983 4.49991C8.99983 3.90898 8.88343 3.32382 8.65729 2.77787C8.43115 2.23192 8.09969 1.73585 7.68183 1.31799C7.26398 0.900138 6.76791 0.568677 6.22196 0.342535C5.676 0.116394 5.09085 0 4.49991 0ZM4.49991 8.09984C3.78792 8.09984 3.09191 7.88871 2.4999 7.49314C1.90789 7.09758 1.44648 6.53535 1.17401 5.87755C0.901543 5.21974 0.830252 4.49592 0.969156 3.7976C1.10806 3.09928 1.45092 2.45784 1.95438 1.95438C2.45784 1.45092 3.09928 1.10806 3.7976 0.969154C4.49592 0.83025 5.21975 0.901541 5.87755 1.17401C6.53535 1.44648 7.09758 1.90789 7.49315 2.4999C7.88871 3.0919 8.09984 3.78791 8.09984 4.49991C8.09984 5.45467 7.72057 6.37033 7.04545 7.04545C6.37033 7.72056 5.45467 8.09984 4.49991 8.09984ZM6.29988 4.04992H4.94991V2.69995C4.94991 2.5806 4.9025 2.46615 4.81811 2.38176C4.73372 2.29737 4.61926 2.24996 4.49991 2.24996C4.38057 2.24996 4.26611 2.29737 4.18172 2.38176C4.09733 2.46615 4.04992 2.5806 4.04992 2.69995V4.04992H2.69995C2.5806 4.04992 2.46615 4.09733 2.38176 4.18172C2.29737 4.26611 2.24996 4.38057 2.24996 4.49991C2.24996 4.61926 2.29737 4.73371 2.38176 4.8181C2.46615 4.90249 2.5806 4.9499 2.69995 4.9499H4.04992V6.29988C4.04992 6.41922 4.09733 6.53368 4.18172 6.61807C4.26611 6.70246 4.38057 6.74987 4.49991 6.74987C4.61926 6.74987 4.73372 6.70246 4.81811 6.61807C4.9025 6.53368 4.94991 6.41922 4.94991 6.29988V4.9499H6.29988C6.41922 4.9499 6.53368 4.90249 6.61807 4.8181C6.70246 4.73371 6.74987 4.61926 6.74987 4.49991C6.74987 4.38057 6.70246 4.26611 6.61807 4.18172C6.53368 4.09733 6.41922 4.04992 6.29988 4.04992Z" fill="white"/>
</svg>
