<svg width="17" height="17" viewBox="0 0 17 17" fill="none" xmlns="http://www.w3.org/2000/svg">
<path d="M15.5876 6.21682L3.6882 0.267116C3.21859 0.0333847 2.68832 -0.049825 2.16969 0.0288311C1.65106 0.107487 1.16931 0.344181 0.790123 0.706643C0.410933 1.0691 0.152758 1.53969 0.0507966 2.05425C-0.0511645 2.5688 0.00805097 3.10228 0.220369 3.58195L2.26027 8.14623C2.30656 8.25658 2.33039 8.37505 2.33039 8.49471C2.33039 8.61438 2.30656 8.73285 2.26027 8.8432L0.220369 13.4075C0.047573 13.7957 -0.0254762 14.2209 0.00786037 14.6445C0.0411969 15.0681 0.179862 15.4766 0.411255 15.833C0.642647 16.1894 0.95943 16.4823 1.33281 16.6851C1.7062 16.8879 2.12435 16.9942 2.54926 16.9943C2.94723 16.9903 3.33928 16.8974 3.6967 16.7223L15.5961 10.7726C16.0182 10.5603 16.373 10.2348 16.6209 9.83261C16.8688 9.43039 17.0001 8.9672 17.0001 8.49471C17.0001 8.02223 16.8688 7.55904 16.6209 7.15681C16.373 6.75459 16.0182 6.42916 15.5961 6.21682H15.5876ZM14.8312 9.25118L2.93174 15.2009C2.77548 15.2759 2.60003 15.3014 2.42889 15.2739C2.25776 15.2463 2.09912 15.1671 1.97427 15.0469C1.84941 14.9267 1.7643 14.7712 1.73035 14.6012C1.69639 14.4312 1.71521 14.2549 1.78429 14.0959L3.81569 9.53166C3.84199 9.47071 3.8647 9.40828 3.88369 9.34467H9.7399C9.96533 9.34467 10.1815 9.25512 10.3409 9.09573C10.5003 8.93633 10.5899 8.72014 10.5899 8.49471C10.5899 8.26929 10.5003 8.0531 10.3409 7.8937C10.1815 7.7343 9.96533 7.64476 9.7399 7.64476H3.88369C3.8647 7.58115 3.84199 7.51871 3.81569 7.45776L1.78429 2.89349C1.71521 2.73451 1.69639 2.55822 1.73035 2.38825C1.7643 2.21827 1.84941 2.06274 1.97427 1.94251C2.09912 1.82228 2.25776 1.74309 2.42889 1.71557C2.60003 1.68805 2.77548 1.71351 2.93174 1.78854L14.8312 7.73825C14.9704 7.80958 15.0872 7.91794 15.1688 8.05141C15.2504 8.18488 15.2936 8.33828 15.2936 8.49471C15.2936 8.65115 15.2504 8.80454 15.1688 8.93801C15.0872 9.07148 14.9704 9.17985 14.8312 9.25118Z" fill="#0061FF"/>
</svg>
