<svg width="21" height="20" viewBox="0 0 21 20" fill="none" xmlns="http://www.w3.org/2000/svg">
<path d="M10.0278 0C8.7146 0 7.41429 0.258647 6.20109 0.761172C4.98788 1.2637 3.88554 2.00026 2.95699 2.92881C1.08171 4.80409 0.0281852 7.34752 0.0281852 9.99957C0.0194434 12.3086 0.818944 14.5479 2.28809 16.3293L0.288174 18.3292C0.149422 18.4698 0.0554301 18.6484 0.0180576 18.8424C-0.0193149 19.0364 0.00160683 19.2371 0.078183 19.4192C0.161237 19.5991 0.295878 19.7503 0.465013 19.8535C0.634149 19.9568 0.830152 20.0075 1.02814 19.9991H10.0278C12.6798 19.9991 15.2232 18.9456 17.0985 17.0703C18.9738 15.1951 20.0273 12.6516 20.0273 9.99957C20.0273 7.34752 18.9738 4.80409 17.0985 2.92881C15.2232 1.05352 12.6798 0 10.0278 0ZM10.0278 17.9992H3.43804L4.368 17.0693C4.55424 16.8819 4.65878 16.6285 4.65878 16.3643C4.65878 16.1001 4.55424 15.8467 4.368 15.6593C3.05864 14.3514 2.24326 12.63 2.06079 10.7883C1.87831 8.94667 2.34003 7.0987 3.36727 5.55928C4.39451 4.01987 5.92372 2.88424 7.69437 2.34587C9.46502 1.80751 11.3676 1.89972 13.0778 2.6068C14.7881 3.31388 16.2003 4.59208 17.0739 6.22363C17.9474 7.85517 18.2283 9.73913 17.8686 11.5545C17.5088 13.3699 16.5308 15.0044 15.1011 16.1795C13.6714 17.3547 11.8784 17.9978 10.0278 17.9992Z" fill="#75839D"/>
</svg>
