<svg width="20" height="18" viewBox="0 0 20 18" fill="none" xmlns="http://www.w3.org/2000/svg">
<path d="M18.1767 1.87955C17.1163 0.816488 15.7108 0.167655 14.214 0.0502545C12.7171 -0.0671456 11.2276 0.354629 10.0146 1.23939C8.74189 0.292784 7.15782 -0.136452 5.58135 0.0381188C4.00487 0.21269 2.55309 0.9781 1.51836 2.18022C0.483625 3.38233 -0.0571981 4.93186 0.00479663 6.51676C0.0667913 8.10166 0.726999 9.6042 1.85247 10.7218L8.06406 16.9434C8.58421 17.4553 9.28476 17.7422 10.0146 17.7422C10.7444 17.7422 11.4449 17.4553 11.9651 16.9434L18.1767 10.7218C19.3445 9.54679 20 7.95739 20 6.30069C20 4.64399 19.3445 3.05459 18.1767 1.87955ZM16.7663 9.34147L10.5547 15.5531C10.484 15.6244 10.3999 15.6811 10.3072 15.7198C10.2145 15.7584 10.115 15.7783 10.0146 15.7783C9.91411 15.7783 9.81466 15.7584 9.72195 15.7198C9.62924 15.6811 9.54511 15.6244 9.47442 15.5531L3.26283 9.31146C2.47839 8.5096 2.03913 7.43244 2.03913 6.31069C2.03913 5.18894 2.47839 4.11178 3.26283 3.30992C4.06219 2.52071 5.14028 2.07817 6.2636 2.07817C7.38691 2.07817 8.46501 2.52071 9.26437 3.30992C9.35736 3.40367 9.46799 3.47809 9.58988 3.52887C9.71177 3.57965 9.84251 3.60579 9.97455 3.60579C10.1066 3.60579 10.2373 3.57965 10.3592 3.52887C10.4811 3.47809 10.5917 3.40367 10.6847 3.30992C11.4841 2.52071 12.5622 2.07817 13.6855 2.07817C14.8088 2.07817 15.8869 2.52071 16.6863 3.30992C17.4815 4.10127 17.9352 5.17259 17.9501 6.29437C17.9651 7.41615 17.5401 8.49919 16.7663 9.31146V9.34147Z" fill="#FF0000"/>
</svg>
